<?xml version="1.0" encoding="utf-8"?>
<!-- Generator: Adobe Illustrator 19.0.0, SVG Export Plug-In . SVG Version: 6.00 Build 0)  -->
<svg version="1.1" id="Layer_1" xmlns="http://www.w3.org/2000/svg" xmlns:xlink="http://www.w3.org/1999/xlink" x="0px" y="0px"
	 viewBox="-80.8 -139.8 840 840" style="enable-background:new -80.8 -139.8 840 840;" xml:space="preserve">
<style type="text/css">
	.st0{fill:none;}
	.st1{fill:#FFFFFF;}
</style>
<g>
	<path class="st0" d="M39.9,460.5c0,0-4.7,8.2-3,9.2s7.8-1.6,7.8-1.6l75.8-42.5l-41.1-26.6C79.4,399.1,39.9,460.5,39.9,460.5z
		 M56.9,322.1c0,0-5.6,0.4-6.2,2.6c-0.8,2.7,3.7,5.4,3.7,5.4l9.4,7.4l9.1-17.2L56.9,322.1z M153.3,407.3l188.9-109.6
		c0,0,10.1-5.9,9-8.4c-1-2.4-14.3,0-14.3,0L135,313l-34.3,53.2L153.3,407.3L153.3,407.3z"/>
	<path class="st1" d="M746.2-44l-4.5-15.2L263,51.4c0,0-4.2,0.3-7.7,4.8c-2.3,3-4.4,7.2-4.4,7.2L147.3,263h0l-0.2,0.3l-0.1,0.1h0
		l-11.6,19.1l352.6-48c0,0,17.9-2,20.8-1.8c12.1,0.7-11.4,14.7-11.4,14.7l-322.1,178l-12.4,5.9l145.5,105.1l0,0
		c0.1-5.4-7.1-13.3-7.1-13.3l-117.1-91.5l365.5-187.5c0,0,74.5-40.5,19.5-43.8c-6.8-0.4-34.8,3.1-34.8,3.1L169.1,260l95.6-163.5
		c0,0,7.4-11.8,13.6-20.5c3.6-5.1,12.1-6.7,12.1-6.7l443.7-92c0,0,11.7-2.3,13.7-5.9C749.7-32,746.2-44,746.2-44z"/>
	<path class="st1" d="M153.8,435.8l-149.3,71c0,0-13.7,7-15.8,5.3c-2.1-1.7,3.4-11.5,3.4-11.5l69.4-128.1l-80-55
		c0,0-10.3-6.3-7.2-10.1c2.3-2.7,19.8-5.5,19.8-5.5l114-15.5l11.5-21.1l0.1,0L232.6,52.7c0,0,3.7-7.6,7.6-12.1
		c5.8-6.6,15.5-8.1,15.5-8.1L733.5-86.4l-4.9-16.5c0,0-3-8.1-9.8-8.6c-4.3-0.3-17.6,2.6-17.6,2.6l-460.1,122c0,0-15.8,3.5-22.1,11.8
		c-4.1,5.3-14,25.8-14,25.8L99.1,270.8l-133.4,20.6c0,0-24.3,3.3-25.2,9.3c-1.4,8.7,25.2,24.8,25.2,24.8l77.8,50.3L-32.2,519
		c0,0-4.2,6.9,0.7,11.4c4.9,4.5,17-2,17-2l167.6-81.5L292.5,537c0,0,9,5.5,13.6,3.3c-0.3-0.1-0.5-0.2-0.5-0.2L153.8,435.8z"/>
	<path class="st1" d="M75.3,381.8l-58.7,96.8c0,0-7.7,12.9-4.3,13.1c5.7,0.2,15.7-5,15.7-5l113.1-59.6L75.3,381.8L75.3,381.8z
		 M44.7,468.2c0,0-6.1,2.6-7.8,1.6s3-9.2,3-9.2l39.6-61.4l41.1,26.6L44.7,468.2L44.7,468.2z M81.1,372.2l69.2,50l12.1-6.3
		l244.6-136.3c0,0,17.9-11.1,10.5-13.1c-2.9-0.8-11,0.3-11,0.3l-282,33.9L81.1,372.2L81.1,372.2z M337,289.4c0,0,13.2-2.4,14.3,0
		s-9,8.4-9,8.4L153.3,407.3l-52.6-41.1L135,313L337,289.4z M98.7,303.7L9.7,314.5c0,0-4.2,0.8-4.2,2.5s5.5,4.6,5.5,4.6l56.1,40.5
		L98.7,303.7z M54.5,330.1c0,0-4.5-2.7-3.7-5.4c0.6-2.2,6.2-2.6,6.2-2.6l16.1-1.9l-9.1,17.2L54.5,330.1z"/>
	<path id="XMLID_68_" class="st1" d="M-49.4,138.6c-11.4,0-20.6-9.2-20.6-20.6s9.2-20.6,20.6-20.6s20.6,9.2,20.6,20.6
		C-28.8,129.4-38.1,138.6-49.4,138.6z M-49.4,107.5c-5.8,0-10.6,4.8-10.6,10.6s4.8,10.6,10.6,10.6s10.6-4.8,10.6-10.6
		C-38.8,112.2-43.6,107.5-49.4,107.5z"/>
	<path id="XMLID_73_" class="st1" d="M99.1,672c-13.4,0-24.4-10.9-24.4-24.4s10.9-24.4,24.4-24.4s24.4,10.9,24.4,24.4
		S112.6,672,99.1,672z M99.1,633.2c-7.9,0-14.4,6.5-14.4,14.4S91.2,662,99.1,662c7.9,0,14.4-6.5,14.4-14.4S107,633.2,99.1,633.2z"/>
	<path id="XMLID_67_" class="st1" d="M514.8,537.1c-13.7,0-24.8-11.1-24.8-24.8s11.1-24.8,24.8-24.8c13.7,0,24.8,11.1,24.8,24.8
		S528.5,537.1,514.8,537.1z M514.8,497.5c-8.2,0-14.8,6.6-14.8,14.8s6.6,14.8,14.8,14.8c8.2,0,14.8-6.6,14.8-14.8
		S523,497.5,514.8,497.5z"/>
</g>
</svg>
