<?xml version="1.0" standalone="no"?>
<!DOCTYPE svg PUBLIC "-//W3C//DTD SVG 20010904//EN"
 "http://www.w3.org/TR/2001/REC-SVG-20010904/DTD/svg10.dtd">
<svg version="1.0" xmlns="http://www.w3.org/2000/svg"
 width="700.000000pt" height="700.000000pt" viewBox="0 0 700.000000 700.000000"
 preserveAspectRatio="xMidYMid meet">
<metadata>
Created by potrace 1.11, written by Peter Selinger 2001-2013
</metadata>
<g transform="translate(0.000000,700.000000) scale(0.100000,-0.100000)"
fill="#000000" stroke="none">
<path d="M3250 6994 c-463 -42 -865 -147 -1248 -330 -998 -474 -1712 -1385
-1932 -2462 -54 -266 -64 -378 -64 -702 0 -324 10 -436 64 -702 280 -1372
1356 -2448 2728 -2728 266 -54 378 -64 702 -64 324 0 436 10 702 64 1372 280
2448 1356 2728 2728 54 266 64 378 64 702 0 324 -10 436 -64 702 -280 1372
-1356 2448 -2728 2728 -238 48 -373 61 -652 65 -140 1 -275 1 -300 -1z m663
-388 c843 -120 1587 -555 2087 -1221 334 -445 539 -954 612 -1515 18 -140 18
-600 0 -740 -111 -859 -550 -1621 -1227 -2130 -445 -334 -954 -539 -1515 -612
-140 -18 -600 -18 -740 0 -1059 137 -1958 769 -2430 1711 -160 319 -265 666
-312 1031 -18 140 -18 600 0 740 137 1059 769 1958 1711 2430 323 162 698 274
1031 309 58 6 119 13 135 15 71 10 546 -4 648 -18z"/>
<path d="M3410 6383 c-1144 -36 -2155 -745 -2588 -1813 -139 -344 -203 -680
-203 -1070 0 -390 64 -726 203 -1070 379 -937 1212 -1609 2198 -1774 303 -51
657 -51 960 0 828 138 1560 641 1997 1369 217 361 348 759 393 1190 14 129 14
441 0 570 -45 431 -176 829 -393 1190 -541 902 -1522 1440 -2567 1408z m2137
-1058 c19 -13 61 -111 52 -120 -2 -2 -595 -150 -1317 -330 -1207 -301 -1315
-329 -1340 -355 -15 -15 -183 -321 -373 -681 l-347 -653 -308 -42 c-331 -45
-410 -59 -420 -76 -10 -16 28 -47 248 -198 114 -78 210 -146 214 -151 3 -5
-73 -154 -169 -332 -246 -454 -237 -434 -192 -423 14 4 215 96 446 206 231
110 422 200 425 200 6 0 696 -473 779 -533 37 -27 38 -29 12 -23 -16 4 -201
118 -411 255 l-383 248 -469 -228 c-467 -228 -524 -251 -538 -213 -8 22 -1 36
218 449 153 289 193 372 183 381 -6 7 -104 72 -217 144 -239 155 -307 206
-316 239 -12 43 -5 45 468 119 208 32 379 60 381 63 2 2 140 287 306 633 166
346 314 647 329 669 15 23 41 49 58 59 28 16 2487 675 2603 697 25 5 48 9 51
10 3 0 15 -6 27 -14z m113 -312 c21 -75 23 -118 7 -132 -9 -7 -569 -127 -1244
-267 -675 -140 -1238 -258 -1250 -264 -12 -5 -43 -40 -67 -77 -82 -123 -554
-938 -546 -941 5 -2 460 66 1012 152 552 85 1041 157 1088 160 197 13 210 -60
32 -177 -37 -25 -429 -230 -872 -457 -443 -227 -892 -457 -998 -512 l-192
-100 319 -249 c280 -218 363 -291 349 -304 -5 -5 -762 541 -765 552 -2 5 20
20 49 35 81 39 1664 914 1744 964 69 42 97 72 71 75 -39 5 -191 -15 -1056
-132 -524 -71 -955 -128 -958 -126 -2 3 9 27 25 53 16 27 157 294 312 594 155
299 287 552 294 562 6 10 27 23 46 29 41 12 2559 597 2577 598 7 1 17 -16 23
-36z m-1762 -1735 c-8 -24 -111 -84 -781 -457 l-667 -371 -183 132 c-100 72
-184 132 -186 134 -3 3 209 364 226 384 6 6 1487 187 1546 189 35 1 48 -3 45
-11z m-1818 -348 c-53 -97 -86 -148 -93 -143 -45 25 -317 227 -317 234 0 5 8
9 18 9 9 1 118 13 242 29 124 15 227 26 229 25 2 -2 -34 -71 -79 -154z m140
-387 c94 -64 167 -120 163 -124 -5 -3 -150 -81 -324 -173 -290 -152 -359 -182
-359 -157 0 5 70 126 156 268 181 300 183 303 190 303 2 0 81 -53 174 -117z"/>
<path d="M2945 3111 c-308 -37 -566 -69 -573 -72 -16 -5 -192 -281 -186 -291
6 -10 272 -218 279 -218 9 0 1010 582 1044 608 25 19 30 27 20 33 -8 5 -16 8
-19 8 -3 -1 -257 -32 -565 -68z"/>
<path d="M1941 2991 c-14 -4 -26 -12 -28 -18 -4 -11 64 -70 71 -62 2 2 13 23
25 47 l21 42 -32 -1 c-18 -1 -44 -4 -57 -8z"/>
<path d="M2037 2533 c-14 -21 -58 -90 -100 -154 -71 -110 -107 -171 -107 -184
0 -18 56 8 242 112 114 64 208 120 208 124 0 6 -203 139 -214 139 -3 0 -16
-17 -29 -37z"/>
</g>
</svg>
