<?xml version="1.0" standalone="no"?>
<!DOCTYPE svg PUBLIC "-//W3C//DTD SVG 20010904//EN"
 "http://www.w3.org/TR/2001/REC-SVG-20010904/DTD/svg10.dtd">
<svg version="1.0" xmlns="http://www.w3.org/2000/svg"
 width="700.000000pt" height="700.000000pt" viewBox="0 0 700.000000 700.000000"
 preserveAspectRatio="xMidYMid meet">
<metadata>
Created by potrace 1.11, written by Peter Selinger 2001-2013
</metadata>
<g transform="translate(0.000000,700.000000) scale(0.100000,-0.100000)"
fill="#000000" stroke="none">
<path d="M6585 6755 c-38 -7 -167 -38 -285 -70 -118 -31 -222 -58 -230 -60 -8
-2 -40 -10 -70 -19 -48 -14 -1170 -311 -1210 -321 -8 -2 -179 -47 -380 -101
-201 -53 -423 -112 -495 -131 -71 -19 -308 -81 -525 -139 -217 -58 -456 -121
-530 -140 -279 -74 -327 -95 -377 -172 -28 -43 -168 -323 -303 -607 -120 -251
-163 -341 -240 -500 -45 -93 -109 -225 -141 -293 -63 -130 -138 -288 -237
-494 -48 -99 -66 -129 -84 -132 -20 -5 -81 -14 -198 -31 -14 -2 -72 -11 -130
-20 -245 -38 -541 -84 -590 -91 -19 -3 -42 -7 -50 -9 -8 -2 -37 -7 -65 -10
-27 -4 -57 -8 -65 -10 -8 -2 -31 -7 -50 -10 -56 -9 -127 -35 -140 -50 -7 -8
-9 -26 -6 -39 15 -59 97 -118 719 -517 98 -62 126 -85 122 -98 -5 -17 -121
-238 -285 -546 -21 -38 -68 -128 -105 -200 -37 -71 -80 -152 -95 -180 -150
-273 -168 -323 -126 -350 37 -24 88 -7 332 111 120 58 287 139 369 179 83 40
254 123 380 185 127 62 281 136 342 166 l113 54 117 -76 c115 -74 321 -207
551 -356 62 -40 131 -84 153 -98 21 -14 105 -68 186 -120 162 -105 215 -133
245 -128 14 2 -27 35 -142 113 -218 149 -318 218 -640 439 -151 104 -316 218
-367 253 -51 35 -96 63 -100 63 -5 0 -35 -13 -68 -29 -63 -31 -269 -129 -395
-189 -41 -19 -153 -73 -249 -119 -95 -45 -175 -83 -176 -83 -2 0 -83 -39 -181
-86 -189 -91 -298 -136 -307 -128 -3 3 0 20 5 37 13 36 18 46 240 457 198 365
210 386 292 538 37 68 66 127 64 132 -2 5 -147 107 -323 228 -176 121 -336
233 -357 248 -44 35 -53 60 -28 74 25 13 131 37 200 45 30 3 67 8 81 10 14 3
43 7 65 10 21 2 55 7 74 10 19 2 55 7 80 10 25 4 56 8 70 10 14 2 95 13 180
25 85 11 184 25 220 30 36 5 80 12 98 14 19 3 35 6 37 8 6 6 170 310 240 443
37 72 75 144 85 160 10 17 46 84 80 150 34 66 77 147 95 180 18 33 58 110 90
170 32 61 72 137 90 170 18 33 53 98 78 145 24 47 82 155 127 240 45 85 100
189 122 230 22 41 51 93 65 115 55 87 -37 61 1650 481 1246 310 2017 501 2173
540 262 64 310 77 310 89 0 24 -39 140 -55 161 -24 35 -61 42 -140 29z"/>
<path d="M6835 6322 c-11 -2 -85 -18 -165 -37 -80 -19 -156 -36 -170 -39 -14
-2 -65 -14 -115 -26 -49 -12 -101 -24 -115 -26 -14 -3 -43 -10 -65 -16 -22 -5
-51 -12 -65 -15 -14 -2 -43 -9 -65 -15 -22 -5 -48 -12 -59 -14 -10 -2 -109
-24 -220 -50 -111 -25 -237 -54 -281 -64 -44 -11 -363 -84 -708 -164 -346 -80
-639 -148 -650 -150 -12 -3 -209 -48 -437 -101 -228 -53 -422 -98 -430 -100
-186 -40 -456 -108 -468 -117 -28 -24 -57 -76 -277 -503 -48 -93 -114 -219
-145 -280 -32 -60 -88 -168 -125 -240 -37 -71 -96 -184 -130 -250 -34 -66
-100 -192 -145 -280 -45 -88 -107 -202 -138 -253 -30 -51 -53 -95 -51 -97 2
-2 81 7 174 21 94 13 188 26 210 28 22 3 69 9 105 15 36 6 88 13 115 16 28 3
82 9 120 15 39 5 90 12 115 15 25 3 52 7 60 9 8 3 40 7 71 11 31 3 65 7 75 9
11 2 44 7 74 11 30 3 66 8 80 10 14 2 79 11 145 20 66 9 131 18 145 20 26 4
155 21 225 30 21 3 50 7 64 10 14 2 50 7 80 10 30 4 61 8 70 10 9 1 45 6 81
10 36 4 67 8 70 10 3 2 34 6 70 10 36 3 72 8 80 10 8 2 39 7 69 10 30 4 61 8
70 10 9 1 45 6 81 10 36 4 67 8 70 10 3 2 34 6 70 10 36 3 121 15 190 25 185
28 333 40 346 28 11 -11 -11 -40 -54 -71 -48 -34 -179 -108 -762 -430 -184
-101 -355 -196 -380 -209 -99 -56 -727 -402 -910 -503 -107 -59 -220 -121
-250 -138 -194 -109 -368 -204 -447 -245 -51 -25 -93 -49 -93 -52 0 -4 172
-131 382 -282 211 -152 480 -346 598 -432 118 -85 216 -151 218 -146 3 9 -20
55 -40 80 -7 9 -231 186 -498 394 -267 209 -486 380 -488 381 -2 2 108 60 245
130 443 228 604 311 828 425 121 62 288 147 370 190 83 43 240 124 350 180
110 56 281 144 380 195 99 51 284 145 410 210 554 283 622 323 725 424 68 67
80 103 43 137 -44 41 -193 48 -393 19 -14 -2 -77 -11 -140 -20 -63 -9 -126
-18 -140 -20 -14 -2 -70 -12 -125 -21 -55 -8 -111 -17 -125 -19 -23 -3 -134
-21 -190 -30 -14 -2 -72 -11 -130 -20 -108 -16 -147 -22 -190 -30 -14 -3 -45
-7 -70 -10 -47 -6 -69 -9 -160 -25 -30 -5 -73 -12 -95 -15 -60 -8 -118 -17
-140 -21 -10 -2 -37 -6 -60 -9 -22 -3 -51 -8 -65 -10 -31 -6 -74 -13 -120 -20
-19 -2 -136 -21 -260 -40 -124 -19 -238 -37 -255 -39 -126 -18 -258 -39 -300
-46 -27 -5 -68 -12 -90 -15 -22 -3 -69 -10 -105 -16 -36 -6 -79 -12 -97 -15
-17 -2 -73 -10 -124 -19 -51 -8 -95 -13 -97 -11 -2 3 45 87 104 188 59 101
161 275 227 388 583 998 571 980 647 1000 32 9 243 54 310 66 14 3 45 10 70
16 25 5 59 12 75 15 17 2 80 15 140 28 61 13 166 36 235 50 69 14 139 29 155
32 17 4 32 7 35 8 3 0 21 4 40 8 19 4 46 9 60 12 14 3 48 10 75 15 80 16 86
17 170 35 44 9 89 19 101 21 11 2 104 21 205 43 101 22 198 41 214 44 17 3 50
10 75 16 25 5 59 12 75 15 17 3 138 28 270 56 242 51 359 75 405 84 14 2 93
19 175 36 83 18 160 34 172 36 12 2 108 22 213 44 105 22 201 42 213 44 127
25 277 60 308 73 21 8 41 23 44 34 8 25 -1 83 -28 171 -19 62 -25 73 -42 70z"/>
<path d="M229 5020 c-116 -32 -169 -141 -119 -244 54 -112 215 -125 290 -24
57 78 31 204 -51 249 -30 15 -94 26 -120 19z m95 -109 c20 -21 28 -77 15 -103
-31 -58 -129 -53 -155 7 -36 88 73 163 140 96z"/>
<path d="M4088 3615 c-2 -2 -34 -6 -73 -9 -38 -4 -81 -9 -95 -11 -26 -4 -95
-12 -170 -21 -25 -3 -61 -7 -80 -9 -19 -3 -75 -9 -125 -15 -49 -6 -106 -13
-125 -15 -19 -3 -55 -7 -80 -10 -25 -3 -61 -7 -80 -10 -85 -11 -199 -25 -250
-30 -58 -7 -80 -9 -170 -20 -53 -6 -96 -11 -170 -20 -19 -3 -74 -9 -122 -15
-130 -16 -169 -21 -208 -26 -19 -3 -60 -7 -90 -10 -30 -3 -65 -7 -77 -9 -13
-2 -67 -9 -120 -15 -54 -6 -111 -13 -128 -15 -16 -2 -57 -7 -89 -10 -33 -4
-67 -9 -75 -10 -9 -2 -23 -4 -32 -4 -10 -1 -37 -33 -62 -73 -199 -323 -316
-523 -310 -529 5 -4 105 -77 223 -163 118 -85 244 -176 279 -202 l64 -47 76
39 c42 21 112 59 156 84 44 26 109 62 145 82 36 19 124 68 195 108 72 40 148
83 170 95 35 19 247 136 360 200 22 12 177 99 345 192 168 94 328 183 355 198
28 16 104 58 171 95 66 37 131 74 145 81 31 18 112 80 121 94 11 15 -9 29 -42
31 -16 1 -30 0 -32 -1z m-488 -193 c0 -25 -127 -102 -1065 -642 -136 -79 -526
-306 -552 -321 l-31 -19 -60 47 c-33 27 -132 104 -220 172 l-160 124 107 166
c59 91 124 191 145 222 l37 57 67 7 c37 3 81 8 97 11 17 2 147 17 290 34 143
17 276 32 295 35 19 2 60 7 90 10 30 3 89 10 130 15 82 10 144 17 218 25 26 3
63 8 83 11 20 3 51 7 70 9 121 12 167 17 189 20 14 2 54 7 90 10 36 4 67 8 69
11 8 8 111 4 111 -4z"/>
<path d="M1370 3290 c-30 -4 -77 -11 -105 -14 -53 -7 -364 -44 -430 -52 -22
-2 -53 -6 -68 -8 -45 -5 -57 -25 -27 -44 13 -10 129 -93 258 -186 128 -92 234
-167 236 -165 4 5 120 220 181 334 27 50 54 99 62 110 7 11 13 23 13 27 0 9
-44 9 -120 -2z m-98 -140 c-8 -21 -53 -103 -63 -114 -7 -8 -83 44 -101 69 -22
30 -7 40 77 51 28 3 51 7 52 8 1 1 11 2 21 2 14 0 18 -5 14 -16z"/>
<path d="M1189 2472 c-58 -97 -174 -289 -257 -427 -83 -137 -154 -263 -158
-279 -7 -29 -7 -29 32 -23 38 6 143 55 314 147 81 44 159 86 440 233 254 134
274 145 277 153 1 5 -64 54 -145 109 -80 55 -201 137 -267 182 -66 46 -122 83
-125 83 -3 -1 -53 -81 -111 -178z m329 -82 l161 -104 -102 -56 c-56 -31 -123
-68 -149 -83 -27 -15 -69 -39 -95 -53 -27 -15 -77 -44 -113 -64 -168 -97 -240
-127 -240 -100 0 21 41 90 169 288 71 110 141 219 156 242 14 23 32 40 39 38
7 -2 85 -50 174 -108z"/>
<path d="M4890 1759 c-80 -33 -129 -107 -130 -192 0 -150 150 -250 286 -188
113 51 158 194 93 293 -39 59 -95 92 -164 95 -33 2 -71 -2 -85 -8z m112 -78
c35 -13 75 -58 82 -92 9 -46 -23 -111 -64 -131 -62 -30 -135 -5 -164 57 -29
61 -13 116 46 154 36 22 64 26 100 12z"/>
<path d="M1420 624 c-200 -87 -137 -389 80 -386 56 0 86 12 129 48 88 74 93
225 10 301 -56 51 -150 67 -219 37z m143 -86 c41 -21 63 -84 47 -134 -33 -100
-171 -111 -215 -17 -50 105 62 207 168 151z"/>
</g>
</svg>
